<svg xmlns="http://www.w3.org/2000/svg" viewBox="0 0 512 512">
  <path fill="#e53e3e" d="M256,80c68.38,0,132.667,26.629,181.02,74.98C485.371,203.333,512,267.62,512,336
    s-26.629,132.667-74.98,181.02C388.667,565.371,324.38,592,256,592s-132.667-26.629-181.02-74.98
    C26.629,468.667,0,404.38,0,336s26.629-132.667,74.98-181.02C123.333,106.629,187.62,80,256,80z"/>
  <path fill="#38a169" d="M256,48c-8.837,0-16-7.163-16-16V16c0-8.837,7.163-16,16-16s16,7.163,16,16v16
    C272,40.837,264.837,48,256,48z"/>
  <path fill="#38a169" d="M256,64c-17.673,0-32-14.327-32-32h-32c0,35.346,28.654,64,64,64c17.673,0,32,14.327,32,32h32
    C320,92.654,291.346,64,256,64z"/>
</svg>
